# xmcd
#
# Track frame offsets:
#	150
#	21376
#	32823
#	50159
#	65281
#	76284
#	92909
#	107879
#	119358
#	132754
#	149545
#	166620
#	184857
#	197364
#
# Disc length: 2877 seconds
#
# Revision: 0
# Processed by: cddbd v1.5.2PL0 Copyright (c) Steve Scherf et al.
# Submitted via: dBpowerAMP V4.0
#
DISCID=c10b3b0e
DTITLE=Nana Caymmi - Doce Presença
DYEAR=1900
DGENRE=
TTITLE0=Resposta ao tempo
TTITLE1=Se queres saber - com Wagner Tiso
TTITLE2=Clube de esquina n.o 2
TTITLE3=Sabe de mim
TTITLE4=Estrela da Terra - com Boca Livre
TTITLE5=Não se esqueça de mim - com Erasmo Carlos
TTITLE6=Medo de amar ( Vire essa folha do livro) - com Wagner Tiso
TTITLE7=Mudança dos ventos
TTITLE8=Suave veneno
TTITLE9=Beijo partido - com Wagner Tiso
TTITLE10=Fruta mulher
TTITLE11=Copacabana
TTITLE12=Só louco - com Wagner Tiso
TTITLE13=Doce presença
EXTD=
EXTT0=
EXTT1=
EXTT2=
EXTT3=
EXTT4=
EXTT5=
EXTT6=
EXTT7=
EXTT8=
EXTT9=
EXTT10=
EXTT11=
EXTT12=
EXTT13=
PLAYORDER=
